<?xml version="1.0" encoding="utf-8"?>
<svg viewBox="79.0615 96.4609 330.0001 180.0001" width="25" height="20" xmlns="http://www.w3.org/2000/svg">
  <path id="XMLID_224_" d="M 404.668 122.068 L 254.664 272.068 C 251.852 274.881 248.036 276.461 244.058 276.461 C 240.079 276.461 236.264 274.88 233.451 272.067 L 83.455 122.067 C 77.597 116.209 77.597 106.712 83.455 100.854 C 89.312 94.997 98.81 94.996 104.668 100.854 L 244.058 240.247 L 383.455 100.854 C 386.384 97.925 390.223 96.461 394.062 96.461 C 397.901 96.461 401.74 97.925 404.669 100.855 C 410.526 106.713 410.526 116.21 404.668 122.068 Z" style="" transform="matrix(0.9999999999999999, 0, 0, 0.9999999999999999, 0, 0)"/>
</svg>