<?xml version="1.0" encoding="utf-8"?>
<svg viewBox="187.7315 53.112 330.0001 180.0001" width="25" height="20" xmlns="http://www.w3.org/2000/svg">
  <path id="XMLID_224_" d="M 513.338 207.505 L 363.334 57.505 C 360.522 54.692 356.706 53.112 352.728 53.112 C 348.749 53.112 344.934 54.693 342.121 57.506 L 192.125 207.506 C 186.267 213.364 186.267 222.861 192.125 228.719 C 197.982 234.576 207.48 234.577 213.338 228.719 L 352.728 89.326 L 492.125 228.719 C 495.054 231.648 498.893 233.112 502.732 233.112 C 506.571 233.112 510.41 231.648 513.339 228.718 C 519.196 222.86 519.196 213.363 513.338 207.505 Z" style="" transform="matrix(0.9999999999999999, 0, 0, 0.9999999999999999, 0, 0)"/>
</svg>